<svg xmlns="http://www.w3.org/2000/svg" xmlns:xlink="http://www.w3.org/1999/xlink" viewBox="0,0,256,256" width="50px" height="50px" fill-rule="nonzero"><g fill="#00d8e9" fill-rule="nonzero" stroke="none" stroke-width="1" stroke-linecap="butt" stroke-linejoin="miter" stroke-miterlimit="10" stroke-dasharray="" stroke-dashoffset="0" font-family="none" font-weight="none" font-size="none" text-anchor="none" style="mix-blend-mode: normal"><g transform="scale(8,8)"><path d="M19,0v2c6.065,0 11,4.935 11,11h2c0,-7.168 -5.832,-13 -13,-13zM8.65039,3.00586c-0.52488,0 -1.04929,0.17124 -1.47656,0.51563l-0.04883,0.03906l-3.14453,3.24414l0.06641,-0.0625c-1.04063,0.89623 -1.32742,2.31193 -0.88086,3.50195c0.84267,2.42993 2.99084,7.12881 7.22852,11.36133c4.24674,4.25193 8.99497,6.30796 11.34375,7.22461l0.02344,0.00781l0.02344,0.00781c1.2144,0.40705 2.52629,0.11674 3.4668,-0.6875l0.0293,-0.02539l3.125,-3.125c0.82951,-0.82951 0.82951,-2.28377 0,-3.11328l-4.09766,-4.10156c-0.83187,-0.83187 -2.28532,-0.83187 -3.11719,0l-1.98437,1.98438c-0.71039,-0.33906 -2.45824,-1.2187 -4.11914,-2.80273c-1.63931,-1.56327 -2.4762,-3.37023 -2.7793,-4.06836l2,-2c0.8776,-0.87759 0.92752,-2.3843 -0.08399,-3.18945l0.0918,0.08398l-4.14258,-4.24023l-0.04687,-0.03906c-0.42728,-0.34436 -0.95168,-0.51562 -1.47656,-0.51562zM19,4v2c3.859,0 7,3.14 7,7h2c0,-4.962 -4.037,-9 -9,-9zM8.65234,5c0.07126,-0.00012 0.14156,0.02673 0.21094,0.08008l4.06641,4.16406l0.04883,0.03906c-0.0115,-0.00915 0.03842,0.08658 -0.08399,0.20898l-2.95703,2.95703l0.22852,0.60351c0,0 1.12865,3.06867 3.54102,5.36914c2.37223,2.26244 5.29688,3.49805 5.29688,3.49805l0.62305,0.26563l2.97852,-2.97852c0.16813,-0.16813 0.12093,-0.16813 0.28906,0l4.09766,4.10156c0.17049,0.17049 0.17049,0.11467 0,0.28516l-3.04688,3.04688c-0.46395,0.39435 -0.94326,0.4977 -1.51953,0.30664c-2.26213,-0.88458 -6.68651,-2.82039 -10.61719,-6.75586c-3.95794,-3.95311 -6.00886,-8.44481 -6.76172,-10.62109l-0.00391,-0.01172l-0.00586,-0.01367c-0.15142,-0.40044 -0.04074,-0.98121 0.31445,-1.28711l0.0332,-0.0293l3.05469,-3.14844c0.0694,-0.05285 0.14163,-0.07996 0.21289,-0.08008zM19,8v2c1.654,0 3,1.346 3,3h2c0,-2.757 -2.243,-5 -5,-5z"></path></g></g></svg>